<svg width="70" height="70" viewBox="0 0 70 70" fill="none" xmlns="http://www.w3.org/2000/svg">
<path d="M47.2195 5.83398H22.7779C12.1612 5.83398 5.83203 12.1632 5.83203 22.7798V47.1923C5.83203 57.8381 12.1612 64.1673 22.7779 64.1673H47.1904C57.807 64.1673 64.1362 57.8382 64.1362 47.2215V22.7798C64.1654 12.1632 57.8362 5.83398 47.2195 5.83398ZM30.5945 48.7673C29.6029 49.759 28.2904 50.4298 26.6862 50.634L22.7487 51.0715C20.5904 51.3048 18.7529 49.4673 18.9862 47.2798L19.4237 43.3132C19.8029 39.784 22.7487 37.5382 25.8695 37.4798C26.1612 37.4507 26.5112 37.4798 26.832 37.509C28.2029 37.684 29.5154 38.3256 30.6237 39.4048C31.7029 40.484 32.3154 41.7673 32.4904 43.0798C32.5195 43.4007 32.5487 43.7215 32.5487 44.0131C32.5487 45.8215 31.8779 47.484 30.5945 48.7673ZM50.8654 22.0215C48.7654 27.2715 43.9529 34.1548 39.3737 38.6465C38.7029 34.5048 35.407 31.2382 31.207 30.6548C35.6987 26.0465 42.6404 21.1757 47.9195 19.0465C48.8529 18.6965 49.7862 18.959 50.3695 19.5423C50.9529 20.184 51.2445 21.0882 50.8654 22.0215Z" fill="white"/>
</svg>
