<svg width="79" height="74" viewBox="0 0 79 74" fill="none" xmlns="http://www.w3.org/2000/svg">
<path d="M47.239 6.16797H31.7681C28.3448 6.16797 25.5469 8.75797 25.5469 11.9646V14.863C25.5469 18.0696 28.3119 20.6596 31.7352 20.6596H47.239C50.6623 20.6596 53.4273 18.0696 53.4273 14.863V11.9646C53.4602 8.75797 50.6623 6.16797 47.239 6.16797Z" fill="white"/>
<path d="M56.7469 14.8617C56.7469 19.7642 52.4677 23.7726 47.234 23.7726H31.7631C26.5294 23.7726 22.2502 19.7642 22.2502 14.8617C22.2502 13.1351 20.2752 12.0559 18.6294 12.8576C13.9881 15.1701 10.8281 19.7642 10.8281 25.0367V54.0509C10.8281 61.6359 17.4444 67.8334 25.5419 67.8334H53.4552C61.5527 67.8334 68.1689 61.6359 68.1689 54.0509V25.0367C68.1689 19.7642 65.009 15.1701 60.3677 12.8576C58.7219 12.0559 56.7469 13.1351 56.7469 14.8617ZM50.4927 39.2509L37.326 51.5842C36.8323 52.0467 36.2069 52.2626 35.5815 52.2626C34.956 52.2626 34.3306 52.0467 33.8369 51.5842L28.8994 46.9592C27.9448 46.0651 27.9448 44.5851 28.8994 43.6909C29.854 42.7967 31.434 42.7967 32.3885 43.6909L35.5815 46.6817L47.0035 35.9826C47.9581 35.0884 49.5381 35.0884 50.4927 35.9826C51.4473 36.8767 51.4473 38.3567 50.4927 39.2509Z" fill="white"/>
</svg>
