<svg width="79" height="74" viewBox="0 0 79 74" fill="none" xmlns="http://www.w3.org/2000/svg">
<rect x="11" y="10" width="57" height="58" rx="14" fill="white"/>
<path opacity="0.4" d="M36 29C33.38 29 31.25 31.13 31.25 33.75C31.25 36.32 33.26 38.4 35.88 38.49C35.96 38.48 36.04 38.48 36.1 38.49C36.12 38.49 36.13 38.49 36.15 38.49C36.16 38.49 36.16 38.49 36.17 38.49C38.73 38.4 40.74 36.32 40.75 33.75C40.75 31.13 38.62 29 36 29Z" fill="#383C45"/>
<path d="M41.0809 41.1509C38.2909 39.2909 33.7409 39.2909 30.9309 41.1509C29.6609 42.0009 28.9609 43.1509 28.9609 44.3809C28.9609 45.6109 29.6609 46.7509 30.9209 47.5909C32.3209 48.5309 34.1609 49.0009 36.0009 49.0009C37.8409 49.0009 39.6809 48.5309 41.0809 47.5909C42.3409 46.7409 43.0409 45.6009 43.0409 44.3609C43.0309 43.1309 42.3409 41.9909 41.0809 41.1509Z" fill="#383C45"/>
<path opacity="0.4" d="M46.9894 34.3401C47.1494 36.2801 45.7694 37.9801 43.8594 38.2101C43.8494 38.2101 43.8494 38.2101 43.8394 38.2101H43.8094C43.7494 38.2101 43.6894 38.2101 43.6394 38.2301C42.6694 38.2801 41.7794 37.9701 41.1094 37.4001C42.1394 36.4801 42.7294 35.1001 42.6094 33.6001C42.5394 32.7901 42.2594 32.0501 41.8394 31.4201C42.2194 31.2301 42.6594 31.1101 43.1094 31.0701C45.0694 30.9001 46.8194 32.3601 46.9894 34.3401Z" fill="#383C45"/>
<path d="M48.9883 43.5904C48.9083 44.5604 48.2883 45.4004 47.2483 45.9704C46.2483 46.5204 44.9883 46.7804 43.7383 46.7504C44.4583 46.1004 44.8783 45.2904 44.9583 44.4304C45.0583 43.1904 44.4683 42.0004 43.2883 41.0504C42.6183 40.5204 41.8383 40.1004 40.9883 39.7904C43.1983 39.1504 45.9783 39.5804 47.6883 40.9604C48.6083 41.7004 49.0783 42.6304 48.9883 43.5904Z" fill="#383C45"/>
</svg>
