<svg width="59" height="60" viewBox="0 0 59 60" fill="none" xmlns="http://www.w3.org/2000/svg">
<path d="M29.5059 0.833984C13.6326 0.833984 0.75 13.9007 0.75 30.0006C0.75 46.1006 13.6326 59.1673 29.5059 59.1673C45.3791 59.1673 58.2617 46.1006 58.2617 30.0006C58.2617 13.9007 45.3791 0.833984 29.5059 0.833984ZM30.4548 44.584C29.9372 44.759 29.0458 44.759 28.5282 44.584C24.0423 43.0381 13.9777 36.534 13.9777 25.509C13.9777 20.6382 17.831 16.7007 22.6045 16.7007C25.4225 16.7007 27.9243 18.0715 29.5059 20.2298C31.0587 18.1006 33.5892 16.7007 36.4073 16.7007C41.1807 16.7007 45.034 20.6382 45.034 25.509C45.034 36.534 34.9695 43.0381 30.4548 44.584Z" fill="white"/>
</svg>
